<?xml version="1.0" encoding="UTF-8" standalone="no"?>
<svg width="1024" height="1024" viewBox="0 0 1024 1024" fill="none" xmlns="http://www.w3.org/2000/svg">
    <!-- خلفية دائرية متدرجة -->
    <circle cx="512" cy="512" r="512" fill="url(#gradient_bg)"/>
    
    <!-- نمط إسلامي في الخلفية -->
    <path d="M512 100C812 100 900 512 900 512C900 512 812 924 512 924C212 924 124 512 124 512C124 512 212 100 512 100Z" 
          fill="url(#pattern_overlay)" fill-opacity="0.1"/>
    
    <!-- رمز العملة المشفرة -->
    <g transform="translate(256, 256) scale(0.5)">
        <path d="M512 100L924 512L512 924L100 512L512 100Z" fill="#FFFFFF"/>
        <path d="M512 200L824 512L512 824L200 512L512 200Z" fill="#2E7D32"/>
        <text x="512" y="562" font-family="Cairo" font-size="120" fill="white" text-anchor="middle">تداول</text>
    </g>
    
    <!-- تدرجات لونية -->
    <defs>
        <linearGradient id="gradient_bg" x1="0" y1="0" x2="1024" y2="1024" gradientUnits="userSpaceOnUse">
            <stop offset="0%" style="stop-color:#1B5E20"/>
            <stop offset="100%" style="stop-color:#2E7D32"/>
        </linearGradient>
        
        <pattern id="pattern_overlay" x="0" y="0" width="40" height="40" patternUnits="userSpaceOnUse">
            <path d="M0 20L20 0L40 20L20 40Z" fill="#FFFFFF" fill-opacity="0.05"/>
        </pattern>
    </defs>
</svg>
